#!OML:ASF I:\Actors\actors\Patient Classification 2\Patient 1\Session 1\actor1.ASF
:FULLY-SPECIFIED
:DEGREES
321
root -0.755166 18.8186 4.79501 6.35124 -0.554951 -1.62007
lowerback 13.4808 1.27488 -1.58288
upperback 6.66916 1.51055 1.19972
thorax -0.620276 0.698261 1.93334
lowerneck -14.2386 -3.22362 -5.1056
upperneck 24.5064 -4.4241 4.57307
head 10.4063 -1.9622 1.90834
rclavicle -1.02374e-014 -4.96962e-016
rhumerus 11.3897 33.3399 -71.8175
rradius 66.1916
rwrist 36.6643
rhand -43.795 -49.4287
rfingers 7.12502
rthumb -16.6239 281.263
lclavicle -1.02374e-014 -4.96962e-016
lhumerus 12.9734 -32.6895 80.8901
lradius 63.9384
lwrist -20.8686
lhand -30.9268 -42.6341
lfingers 7.12502
lthumb -4.21245 -12.696
rfemur 0 0 0
rtibia 0
rfoot 0 0
rtoes 0
lfemur -13.022 -6.67852 -11.3927
ltibia 21.9329
lfoot -20.1143 16.5036
ltoes -54.4703
322
root -0.758816 18.8229 4.78117 6.59774 -0.555287 -1.59593
lowerback 13.6381 1.3561 -1.52708
upperback 6.8631 1.62164 1.23912
thorax -0.505198 0.751357 1.92711
lowerneck -14.5991 -3.35461 -5.39618
upperneck 24.3282 -4.58077 4.84545
head 10.4349 -2.02368 2.02806
rclavicle -5.01931e-015 -7.35503e-015
rhumerus 11.8189 31.9451 -72.6642
rradius 65.4531
rwrist 37.7011
rhand -44.4832 -50.342
rfingers 7.12502
rthumb -17.2863 280.407
lclavicle -5.01931e-015 -7.35503e-015
lhumerus 13.6314 -31.5036 82.2571
lradius 62.9203
lwrist -21.955
lhand -31.4442 -45.2319
lfingers 7.12502
lthumb -4.71203 -15.3043
rfemur 0 0 0
rtibia 0
rfoot 0 0
rtoes 0
lfemur -13.3686 -6.70687 -11.3673
ltibia 21.9711
lfoot -20.0566 16.5693
ltoes -54.4677
323
root -0.761567 18.8262 4.77129 6.79119 -0.508733 -1.58873
lowerback 13.9095 1.3457 -1.46105
upperback 6.95296 1.61195 1.23922
thorax -0.553269 0.747511 1.88745
lowerneck -14.6953 -3.3952 -5.6233
upperneck 24.0157 -4.63472 5.12435
head 10.3562 -2.03642 2.1547
rclavicle -3.32964e-015 -3.47873e-015
rhumerus 12.0035 30.6395 -73.9711
rradius 64.7435
rwrist 38.7109
rhand -45.1263 -51.2631
rfingers 7.12502
rthumb -17.9052 279.541
lclavicle -3.32964e-015 -3.47873e-015
lhumerus 13.9628 -30.1329 83.7114
lradius 61.8764
lwrist -22.912
lhand -31.7282 -47.522
lfingers 7.12502
lthumb -4.98631 -17.6007
rfemur 0 0 0
rtibia 0
rfoot 0 0
rtoes 0
lfemur -13.6474 -6.64921 -11.3356
ltibia 21.9969
lfoot -19.9503 16.5381
ltoes -54.488
324
root -0.765339 18.8296 4.76516 6.929 -0.438281 -1.60854
lowerback 14.1618 1.26967 -1.44865
upperback 6.98877 1.50997 1.21522
thorax -0.644337 0.697706 1.86607
lowerneck -14.5897 -3.33402 -5.67077
upperneck 23.6795 -4.57849 5.31783
head 10.2163 -1.99607 2.23691
rclavicle 1.46107e-014 1.78906e-015
rhumerus 12.0321 29.5387 -75.602
rradius 64.0542
rwrist 39.2586
rhand -45.6769 -51.964
rfingers 7.12502
rthumb -18.4349 278.889
lclavicle 1.46107e-014 1.78906e-015
lhumerus 14.0176 -28.643 85.1794
lradius 60.9225
lwrist -23.7118
lhand -32.0922 -48.9673
lfingers 7.12502
lthumb -5.33777 -19.0545
rfemur 0 0 0
rtibia 0
rfoot 0 0
rtoes 0
lfemur -13.8549 -6.47293 -11.2793
ltibia 22.0058
lfoot -19.761 16.392
ltoes -54.5271
325
root -0.770583 18.8325 4.76041 7.04738 -0.443624 -1.61767
lowerback 14.29 1.22479 -1.55886
upperback 7.06277 1.43549 1.21453
thorax -0.633416 0.657192 1.93724
lowerneck -14.5209 -3.2286 -5.49555
upperneck 23.4299 -4.44327 5.22088
head 10.0976 -1.93188 2.18899
rclavicle 1.44119e-015 -2.88238e-015
rhumerus 12.1882 28.5365 -77.1839
rradius 63.2405
rwrist 39.7863
rhand -46.2174 -52.584
rfingers 7.12502
rthumb -18.9548 278.32
lclavicle 1.44119e-015 -2.88238e-015
lhumerus 14.0974 -27.1831 86.6482
lradius 60.0827
lwrist -24.3357
lhand -32.291 -49.7262
lfingers 7.12502
lthumb -5.52971 -19.8183
rfemur 0 0 0
rtibia 0
rfoot 0 0
rtoes 0
lfemur -14.01 -6.31153 -11.2425
ltibia 22.0079
lfoot -19.612 16.338
ltoes -54.6189
326
root -0.774107 18.8348 4.75493 7.17834 -0.596962 -1.61285
lowerback 14.3606 1.23932 -1.67912
upperback 7.20572 1.43801 1.23295
thorax -0.523125 0.65261 2.02458
lowerneck -14.7174 -3.17765 -5.4454
upperneck 23.2401 -4.34461 5.13209
head 10.0577 -1.89005 2.1583
rclavicle 1.16786e-014 1.03368e-014
rhumerus 12.5601 27.6529 -78.4034
rradius 62.4543
rwrist 40.3395
rhand -46.8873 -53.2077
rfingers 7.12502
rthumb -19.5989 277.76
lclavicle 1.16786e-014 1.03368e-014
lhumerus 14.3733 -25.8355 88.0743
lradius 59.3392
lwrist -24.8742
lhand -32.3685 -50.3813
lfingers 7.12502
lthumb -5.60455 -20.4754
rfemur 0 0 0
rtibia 0
rfoot 0 0
rtoes 0
lfemur -14.1311 -6.21968 -11.2365
ltibia 21.9977
lfoot -19.6372 16.409
ltoes -54.5643
327
root -0.773832 18.8367 4.74996 7.28652 -0.747008 -1.60248
lowerback 14.4413 1.25156 -1.69759
upperback 7.3775 1.44942 1.22927
thorax -0.385474 0.654582 2.03026
lowerneck -14.9792 -3.17892 -5.53412
upperneck 23.0165 -4.31052 5.16704
head 10.0285 -1.87505 2.18537
rclavicle 1.25731e-014 1.49089e-015
rhumerus 12.8676 26.8451 -79.4383
rradius 61.9319
rwrist 40.9661
rhand -47.4843 -53.5604
rfingers 7.12502
rthumb -20.1728 277.467
lclavicle 1.25731e-014 1.49089e-015
lhumerus 14.7383 -24.6894 89.33
lradius 58.6583
lwrist -25.469
lhand -32.541 -51.1595
lfingers 7.12502
lthumb -5.77111 -21.2581
rfemur 0 0 0
rtibia 0
rfoot 0 0
rtoes 0
lfemur -14.211 -6.25695 -11.2461
ltibia 21.9628
lfoot -19.7621 16.5488
ltoes -54.3859
328
root -0.775167 18.8387 4.75032 7.32233 -0.721148 -1.60163
lowerback 14.5482 1.21548 -1.66542
upperback 7.5286 1.40389 1.21371
thorax -0.279386 0.630474 2.00262
lowerneck -15.0572 -3.14738 -5.41041
upperneck 22.6971 -4.25306 5.05516
head 9.92026 -1.85057 2.12871
rclavicle 5.46658e-016 -4.96962e-016
rhumerus 13.0959 26.1711 -80.3976
rradius 61.5264
rwrist 41.6808
rhand -47.7771 -53.8722
rfingers 7.12502
rthumb -20.4542 277.185
lclavicle 5.46658e-016 -4.96962e-016
lhumerus 15.0624 -23.8643 90.3265
lradius 58.0108
lwrist -25.7298
lhand -32.5805 -51.557
lfingers 7.12502
lthumb -5.80921 -21.6567
rfemur 0 0 0
rtibia 0
rfoot 0 0
rtoes 0
lfemur -14.228 -6.30106 -11.2357
ltibia 21.907
lfoot -19.7464 16.6193
ltoes -54.4012
329
root -0.778646 18.8409 4.75476 7.3453 -0.597729 -1.60213
lowerback 14.6867 1.1793 -1.62247
upperback 7.6523 1.36028 1.23179
thorax -0.219372 0.607901 2.00301
lowerneck -15.0662 -3.15425 -5.29198
upperneck 22.2345 -4.24064 4.92199
head 9.75119 -1.8512 2.05925
rclavicle -8.29926e-015 8.94531e-016
rhumerus 13.4359 25.7558 -80.9388
rradius 61.0753
rwrist 42.1993
rhand -47.9352 -54.3079
rfingers 7.12502
rthumb -20.6061 276.766
lclavicle -8.29926e-015 8.94531e-016
lhumerus 15.4171 -23.398 91.1167
lradius 57.3812
lwrist -25.564
lhand -32.5067 -51.3437
lfingers 7.12502
lthumb -5.73794 -21.4414
rfemur 0 0 0
rtibia 0
rfoot 0 0
rtoes 0
lfemur -14.2416 -6.35947 -11.2071
ltibia 21.8494
lfoot -19.6591 16.6271
ltoes -54.4916
330
root -0.781727 18.8427 4.75947 7.36839 -0.516044 -1.56846
lowerback 14.9059 1.18661 -1.62187
upperback 7.74061 1.36772 1.27916
thorax -0.243054 0.610125 2.04887
lowerneck -15.2441 -3.2612 -5.46039
upperneck 21.9133 -4.33746 4.97275
head 9.68244 -1.90264 2.08797
rclavicle -2.10215e-014 -1.2921e-015
rhumerus 13.8076 25.5794 -81.0689
rradius 60.6416
rwrist 42.2107
rhand -48.0044 -54.7285
rfingers 7.12502
rthumb -20.6726 276.352
lclavicle -2.10215e-014 -1.2921e-015
lhumerus 15.76 -23.1111 91.8102
lradius 56.7903
lwrist -25.5766
lhand -32.5501 -51.1063
lfingers 7.12502
lthumb -5.77984 -21.2051
rfemur 0 0 0
rtibia 0
rfoot 0 0
rtoes 0
lfemur -14.2459 -6.45373 -11.2174
ltibia 21.8027
lfoot -19.6266 16.6444
ltoes -54.5042
331
root -0.785112 18.8444 4.76589 7.39651 -0.473921 -1.55589
lowerback 15.1313 1.17696 -1.66295
upperback 7.76362 1.3475 1.32258
thorax -0.338196 0.598713 2.11756
lowerneck -15.4738 -3.31997 -5.55985
upperneck 21.8271 -4.37343 4.95089
head 9.69952 -1.92675 2.08914
rclavicle -2.68359e-015 -6.85807e-015
rhumerus 14.0631 25.5541 -81.2126
rradius 60.202
rwrist 41.5691
rhand -47.9548 -54.8875
rfingers 7.12502
rthumb -20.625 276.188
lclavicle -2.68359e-015 -6.85807e-015
lhumerus 15.9084 -22.8087 92.3243
lradius 56.3482
lwrist -25.7607
lhand -32.696 -51.0845
lfingers 7.12502
lthumb -5.92074 -21.1872
rfemur 0 0 0
rtibia 0
rfoot 0 0
rtoes 0
lfemur -14.2524 -6.39544 -11.2146
ltibia 21.7787
lfoot -19.5318 16.5738
ltoes -54.5917
332
root -0.786552 18.8467 4.77528 7.5021 -0.466979 -1.59288
lowerback 15.2076 1.1382 -1.6382
upperback 7.71565 1.29924 1.33521
thorax -0.426632 0.576327 2.12261
lowerneck -15.5388 -3.308 -5.5365
upperneck 21.7656 -4.34242 4.8898
head 9.68621 -1.91666 2.06677
rclavicle 6.26172e-015 -6.95746e-016
rhumerus 14.1232 25.4381 -81.5387
rradius 59.7621
rwrist 40.7222
rhand -47.951 -54.6256
rfingers 7.12502
rthumb -20.6214 276.45
lclavicle 6.26172e-015 -6.95746e-016
lhumerus 15.8447 -22.5573 92.5924
lradius 56.1633
lwrist -25.7648
lhand -32.7101 -50.9216
lfingers 7.12502
lthumb -5.93429 -21.0247
rfemur 0 0 0
rtibia 0
rfoot 0 0
rtoes 0
lfemur -14.3641 -6.36515 -11.1535
ltibia 21.8305
lfoot -19.5499 16.5348
ltoes -54.5762
